<svg width="60" height="60" viewBox="0 0 60 60" fill="none" xmlns="http://www.w3.org/2000/svg">
<g id="logo">
<path id="bottom_vector" d="M9.569 30C9.56561 26.8624 10.2867 23.7663 11.676 20.953C12.09 20.113 12.297 19.693 12.256 19.419C12.241 19.2998 12.2003 19.1852 12.1368 19.0832C12.0733 18.9811 11.9884 18.8941 11.888 18.828C11.661 18.669 11.226 18.669 10.355 18.669H1.412C0.918 18.669 0.671 18.669 0.482 18.765C0.315793 18.8497 0.180667 18.9848 0.0960003 19.151C2.90573e-07 19.34 2.88055e-07 19.587 2.88055e-07 20.08V58.167C-0.000135138 58.4085 0.047483 58.6477 0.140115 58.8707C0.232748 59.0937 0.368566 59.2963 0.539757 59.4666C0.710948 59.637 0.914132 59.7718 1.13762 59.8633C1.36111 59.9549 1.60049 60.0013 1.842 60H58.168C58.6539 60 59.1199 59.807 59.4634 59.4634C59.807 59.1199 60 58.6539 60 58.168V51.843C60 51.349 60 51.102 59.904 50.913C59.8192 50.7472 59.6841 50.6124 59.518 50.528C59.329 50.432 59.082 50.432 58.588 50.432H30C27.3169 50.432 24.66 49.9035 22.1812 48.8767C19.7023 47.8499 17.45 46.3448 15.5527 44.4475C13.6555 42.5502 12.1506 40.2978 11.1239 37.8189C10.0972 35.34 9.56887 32.6831 9.569 30Z" fill="#EB6864"/>
<g id="marten_logo">
<path id="svg_3" d="M33.2716 40.7038L34.1285 39.9814L43.1646 32.415L38.8537 25.6354L40.9466 19.2833L39.5465 17.8742L36.1384 20.3245L36.9601 21.1313L34.7291 20.1317L33.09 19.4449L31.2795 19.7797L30.4993 40.7038H33.2716Z" fill="#EB6864"/>
<path id="svg_4" d="M17.6545 32.415L26.6906 39.9814L27.5475 40.7038H30.3197L29.5395 19.7797L27.7315 19.4449L26.09 20.1317L23.859 21.1313L24.6807 20.3245L21.2726 17.8742L19.8725 19.2833L21.9654 25.6354L17.6545 32.415Z" fill="#EB6864"/>
<path id="svg_5" d="M30.2299 41.3042H32.5594L30.4095 43.1169V43.0725L30.4047 43.0769V43.1169L28.2548 41.3042H30.2299Z" fill="#333333"/>
</g>
<path id="top_vector" d="M58.168 0H1.842C1.35347 0 0.884951 0.194067 0.539509 0.539509C0.194067 0.884951 0 1.35347 0 1.842L0 8.157C0 8.651 0 8.898 0.096 9.087C0.181 9.253 0.316 9.387 0.482 9.472C0.671 9.569 0.918 9.569 1.412 9.569H30C33.4734 9.57136 36.889 10.4588 39.9243 12.1475C42.9595 13.8363 45.5144 16.2706 47.3478 19.2208C49.1812 22.171 50.2325 25.5397 50.4026 29.0089C50.5727 32.4782 49.856 35.9336 48.32 39.049C47.907 39.888 47.7 40.307 47.742 40.581C47.7571 40.7002 47.7978 40.8148 47.8613 40.9168C47.9248 41.0188 48.0097 41.1059 48.11 41.172C48.337 41.331 48.772 41.331 49.64 41.331H58.538C59.033 41.331 59.28 41.331 59.468 41.235C59.6342 41.1504 59.7694 41.0152 59.854 40.849C59.95 40.66 59.95 40.413 59.95 39.919V1.842C59.9528 1.36294 59.7678 0.901837 59.4347 0.557521C59.1016 0.213204 58.6469 0.013067 58.168 0Z" fill="#EB6864"/>
</g>
</svg>
